# xmcd CD database file
# Copyright (C) 1993-1996 Ti Kan
#
# Track frame offsets:
#	182
#	14690
#	26712
#	40032
#	54017
#	69950
#	82025
#	95117
#	109212
#	121300
#	135270
#	146835
#	159245
#	169572
#	181022
#	192830
#	204340
#
# Disc length: 2872 seconds
#
# Revision: 1
# Processed by: cddbd v1.4b41PL1 Copyright (c) Steve Scherf et al.
# Submitted via: xmcd 2.0
#
DISCID=da0b3611
DTITLE=T-Bone Walker - Inventor Of The Electric Guitar Blues
DYEAR=1900
DGENRE=
TTITLE0=Wichita Falls Blues
TTITLE1=Sail On Boogie
TTITLE2=I'm Still In Love With You
TTITLE3=T-Bone Boogie
TTITLE4=Evening
TTITLE5=You Don't Love Me Blues
TTITLE6=Mean Old World Blues
TTITLE7=Description Blues
TTITLE8=That's Better For Me
TTITLE9=Hard Pain Blues
TTITLE10=The Hustle Is On
TTITLE11=Baby Broke My Heart
TTITLE12=I Walked Away
TTITLE13=No Reason
TTITLE14=My Baby Is Now On My Mind
TTITLE15=Pony Tail
TTITLE16=When The Sun Goes Down
EXTD=
EXTT0=
EXTT1=
EXTT2=
EXTT3=
EXTT4=
EXTT5=
EXTT6=
EXTT7=
EXTT8=
EXTT9=
EXTT10=
EXTT11=
EXTT12=
EXTT13=
EXTT14=
EXTT15=
EXTT16=
PLAYORDER=
